Coordinates
version=1
nRows=13
nColumns=27
inDegrees=yes

Units are S.I. units (second, meters, Newtons, ...)
If the header above contains a line with 'inDegrees', this indicates whether rotational values are in degrees (yes) or radians (no).

endheader
time	pelvis_rotation	pelvis_tilt	pelvis_list	pelvis_tx	pelvis_ty	pelvis_tz	hip_flexion_r	hip_adduction_r	hip_rotation_r	knee_angle_r	knee_rotation_r	knee_adduction_r	knee_angle_r_beta	ankle_angle_r	subtalar_angle_r	mtp_angle_r	hip_flexion_l	hip_adduction_l	hip_rotation_l	knee_angle_l	knee_rotation_l	knee_adduction_l	knee_angle_l_beta	ankle_angle_l	subtalar_angle_l	mtp_angle_l
      5.24500000	      9.67062750	    -31.85218721	      4.52571776	     -0.04849607	      0.65771483	     -1.18341651	     92.54206793	    -40.60415118	      3.91160958	     77.60775488	      3.29143941	      9.55453904	      1.35451085	      5.16169857	    -14.87538880	      0.00000000	     92.73167197	    -19.94836330	      9.66518736	     71.76672590	      4.55296563	     -9.74294628	      1.25256566	      5.91719672	     -6.54768768	      0.00000000
      5.25000000	     10.04599265	    -32.06637677	      4.37767303	     -0.04830895	      0.65750642	     -1.18350754	     92.46631543	    -41.07278427	      3.58098758	     77.65696930	      3.56490142	      9.76239983	      1.35536980	      5.11207568	    -15.17540571	      0.00000000	     93.18468654	    -19.62242503	     10.36245190	     71.87053331	      4.92210956	     -9.86316675	      1.25437744	      5.83367635	     -6.94000180	      0.00000000
      5.25500000	     10.10880675	    -32.00478254	      4.85532674	     -0.04793499	      0.65767871	     -1.18357053	     92.85848196	    -41.14775883	      4.37630158	     77.73777465	      3.72703631	      9.76195637	      1.35678012	      5.15857552	    -15.12504139	      0.00000000	     92.81630642	    -19.59364096	      9.74341586	     71.74840070	      4.82652293	     -9.86336375	      1.25224583	      5.88439026	     -6.88422811	      0.00000000
      5.26000000	      9.74482651	    -31.75683942	      4.55402331	     -0.04725854	      0.65849481	     -1.18333909	     92.22279482	    -40.73007478	      3.86045692	     77.53450211	      3.40181578	      9.55463407	      1.35323235	      5.23968461	    -14.81855532	      0.00000000	     92.45643072	    -19.95095766	      9.63419594	     71.65618255	      4.60487131	     -9.74295514	      1.25063631	      5.99818439	     -6.43910606	      0.00000000
      5.26500000	     10.05018331	    -31.98033901	      4.79497008	     -0.04722109	      0.65818458	     -1.18344398	     92.64819207	    -41.09519151	      4.31980420	     77.67323599	      3.80098425	      9.76189672	      1.35565371	      5.21806178	    -15.15151996	      0.00000000	     92.69825294	    -19.72070735	      9.75865544	     71.68997560	      4.88924661	     -9.86365210	      1.25122611	      5.92208395	     -6.81174180	      0.00000000
      5.27000000	      9.77945340	    -31.70800039	      4.58656030	     -0.04652399	      0.65900419	     -1.18327638	     92.05127445	    -40.78608514	      3.84449700	     77.48376473	      3.45658439	      9.55601125	      1.35234681	      5.27973736	    -14.81178697	      0.00000000	     92.28427242	    -19.98013526	      9.57388994	     71.58028821	      4.63585551	     -9.74331870	      1.24931171	      6.08065468	     -6.34838082	      0.00000000
      5.27500000	      9.77857266	    -31.70065065	      4.24905338	     -0.04610862	      0.65935112	     -1.18316363	     91.56940434	    -40.79798759	      3.22542179	     77.36950981	      3.41548249	      9.55827288	      1.35035269	      5.29681980	    -14.84320697	      0.00000000	     92.39809810	    -20.01241800	     10.01213629	     71.59138535	      4.74210229	     -9.74326426	      1.24950539	      6.09203932	     -6.34393344	      0.00000000
      5.28000000	     10.11931294	    -31.94574194	      4.54036745	     -0.04611253	      0.65893511	     -1.18329506	     92.08623235	    -41.21750359	      3.75638016	     77.55212931	      3.82484507	      9.76146235	      1.35354000	      5.28556445	    -15.08360364	      0.00000000	     92.66546562	    -19.75490642	     10.12757901	     71.63751635	      5.05090500	     -9.86345719	      1.25031053	      6.00844408	     -6.71137422	      0.00000000
      5.28500000	      9.89207228	    -31.67269184	      4.34043625	     -0.04543045	      0.65985997	     -1.18312822	     91.45754856	    -40.94208900	      3.25193044	     77.33327197	      3.48674929	      9.55650140	      1.34972022	      5.38078800	    -14.71307742	      0.00000000	     92.23851057	    -19.95279757	      9.93105631	     71.49118008	      4.75739730	     -9.74260034	      1.24775648	      6.12211471	     -6.28437560	      0.00000000
      5.29000000	     10.23030231	    -31.80823407	      4.79066756	     -0.04537372	      0.65944182	     -1.18329832	     92.03311787	    -41.37362751	      4.02734734	     77.53448743	      3.91682796	      9.76303346	      1.35323209	      5.36612953	    -15.00286650	      0.00000000	     92.29669999	    -19.69719616	      9.80752936	     71.50652256	      5.01425805	     -9.86365037	      1.24802426	      6.05251534	     -6.64484180	      0.00000000
      5.29500000	      9.85777989	    -31.56664106	      4.49358375	     -0.04479895	      0.66028032	     -1.18307394	     91.41330888	    -40.93408798	      3.52506445	     77.31267550	      3.59530651	      9.55872056	      1.34936074	      5.38941663	    -14.77394530	      0.00000000	     91.93498868	    -20.05300948	      9.68378854	     71.40053731	      4.78731565	     -9.74417419	      1.24617446	      6.17172600	     -6.22608245	      0.00000000
      5.30000000	     10.09764866	    -31.79525641	      4.76449002	     -0.04482203	      0.65986980	     -1.18316903	     91.93537433	    -41.24649725	      4.11036019	     77.48342967	      4.01805048	      9.76273891	      1.35234096	      5.34556555	    -15.06101005	      0.00000000	     92.16453940	    -19.90037949	      9.75847317	     71.45101475	      5.09630643	     -9.86403409	      1.24705546	      6.11018071	     -6.56076517	      0.00000000
      5.30500000	     10.07737997	    -31.76510836	      4.78989005	     -0.04447756	      0.66012408	     -1.18313096	     91.87112763	    -41.24241951	      4.13307880	     77.45488279	      4.04827605	      9.76298318	      1.35184273	      5.36097294	    -15.07721927	      0.00000000	     92.05424572	    -19.94865294	      9.69478122	     71.40620519	      5.10842870	     -9.86420667	      1.24627339	      6.13938802	     -6.51434253	      0.00000000
